<svg width="55" height="55" viewBox="0 0 55 55" fill="none" xmlns="http://www.w3.org/2000/svg">
<ellipse cx="27.75" cy="51" rx="3.9" ry="1.8" fill="#202020" fill-opacity="0.3"/>
<ellipse cx="27.75" cy="51" rx="6.5" ry="3" fill="#202020" fill-opacity="0.2"/>
<path fill-rule="evenodd" clip-rule="evenodd" d="M48.5614 21.8151C48.5614 33.3114 39.0901 42.6302 27.4057 42.6302C15.7212 42.6302 6.25 33.3114 6.25 21.8151C6.25 10.3188 15.7212 1 27.4057 1C39.0901 1 48.5614 10.3188 48.5614 21.8151Z" fill="#C06E23"/>
<path d="M15 10.8672V11.7344H27H39V10.8672V10H27H15V10.8672Z" fill="white"/>
<path d="M15.4219 22.4219V32.2656H19.0781H22.7344V29.8328V27.4047L22.8563 27.2781L22.9828 27.1562H27H31.0172L31.1438 27.2781L31.2656 27.4047V29.8328V32.2656H34.9219H38.5781V22.4219V12.5781H27H15.4219V22.4219ZM20.7984 14.3547C20.8547 14.3922 20.9203 14.4766 20.9484 14.5328C21.0188 14.6828 21.0188 17.3172 20.9484 17.4672C20.8453 17.7016 20.7844 17.7109 19.4531 17.725C18.0141 17.7437 17.8453 17.725 17.6906 17.5609L17.5781 17.4391V16.0047C17.5781 14.4203 17.5828 14.4062 17.8828 14.3125C17.9625 14.2891 18.6234 14.275 19.3594 14.2797C20.4328 14.2891 20.7141 14.3031 20.7984 14.3547ZM28.5797 14.4203L28.7109 14.5469V16V17.4531L28.5797 17.5797L28.4531 17.7109H27H25.5469L25.4203 17.5797L25.2891 17.4531V16.0047V14.5562L25.4016 14.4344C25.4625 14.3687 25.5563 14.3078 25.6125 14.2984C25.6641 14.2844 26.3297 14.2797 27.0797 14.2844L28.4531 14.2891L28.5797 14.4203ZM36.0984 14.3125C36.4172 14.4016 36.4219 14.4203 36.4219 16.0141V17.4391L36.3094 17.5609C36.1547 17.725 35.9859 17.7437 34.5469 17.725C33.2156 17.7109 33.1547 17.7016 33.0516 17.4672C32.9766 17.3078 32.9813 14.6687 33.0516 14.5328C33.1125 14.4203 33.2016 14.3547 33.3516 14.3031C33.5063 14.2562 35.9156 14.2609 36.0984 14.3125ZM20.8453 18.6906L20.9766 18.8031V20.2844C20.9766 21.7609 20.9766 21.7609 20.8688 21.8687C20.7609 21.9766 20.7609 21.9766 19.2844 21.9766H17.8031L17.6906 21.8453L17.5781 21.7141V20.2844V18.85L17.7141 18.7141L17.85 18.5781H19.2844H20.7141L20.8453 18.6906ZM28.5609 18.6906C28.725 18.8453 28.7438 19.0141 28.725 20.4531C28.7109 21.7844 28.7016 21.8453 28.4672 21.9484C28.3172 22.0187 25.6828 22.0187 25.5328 21.9484C25.2984 21.8453 25.2891 21.7844 25.275 20.4531C25.2563 19.0141 25.275 18.8453 25.4391 18.6906L25.5609 18.5781H27H28.4391L28.5609 18.6906ZM36.2859 18.7141L36.4219 18.85V20.2844V21.7141L36.3094 21.8453L36.1969 21.9766H34.7156C33.2391 21.9766 33.2391 21.9766 33.1313 21.8687C33.0234 21.7609 33.0234 21.7609 33.0234 20.2844V18.8031L33.1547 18.6906L33.2859 18.5781H34.7156H36.15L36.2859 18.7141ZM20.7141 22.8953C20.9859 22.9891 21 23.0641 21 24.5969V25.975L20.8781 26.1203L20.7563 26.2656H19.2891H17.8266L17.7 26.1437L17.5781 26.0172V24.5922C17.5781 23.6594 17.5969 23.1344 17.6297 23.0734C17.7375 22.8719 17.9016 22.8484 19.2703 22.8438C20.1 22.8438 20.6156 22.8625 20.7141 22.8953ZM28.5797 22.9984L28.7109 23.125L28.725 24.4281C28.7344 25.1406 28.725 25.7969 28.7109 25.8859C28.6969 25.9703 28.6313 26.0922 28.5703 26.1531L28.4578 26.2656H27H25.5422L25.4297 26.1531C25.3688 26.0922 25.3031 25.9703 25.2891 25.8859C25.275 25.7969 25.2656 25.1453 25.275 24.4328C25.2891 23.2141 25.2938 23.1297 25.3828 23.0312C25.4344 22.975 25.5188 22.9094 25.5703 22.8859C25.6219 22.8672 26.2922 22.8531 27.0563 22.8578L28.4531 22.8672L28.5797 22.9984ZM36.1641 22.9094C36.2484 22.9469 36.3422 23.0172 36.3703 23.0687C36.4031 23.1344 36.4219 23.6594 36.4219 24.5922V26.0172L36.3 26.1437L36.1734 26.2656H34.7109H33.2438L33.1219 26.1203L33 25.975V24.6016C33 23.0969 33.0141 23.0172 33.2578 22.9094C33.4688 22.8156 35.9391 22.8156 36.1641 22.9094ZM20.8641 27.2922L21 27.4281V28.8203C21 30.3391 20.9859 30.4187 20.7281 30.5266C20.6344 30.5641 20.1984 30.5781 19.2 30.5687L17.8031 30.5547L17.6906 30.4234L17.5781 30.2922V28.8672V27.4469L17.7 27.3016L17.8219 27.1562H19.275H20.7281L20.8641 27.2922ZM36.3 27.3016L36.4219 27.4469V28.8484C36.4219 29.725 36.4031 30.2922 36.375 30.3484C36.2578 30.5594 36.1359 30.5781 34.7156 30.5781C33.7781 30.5781 33.3422 30.5594 33.2578 30.5219C33.0141 30.4094 33 30.325 33 28.8203V27.4281L33.1359 27.2922L33.2719 27.1562H34.725H36.1781L36.3 27.3016Z" fill="white"/>
<path d="M18.4219 16V16.8438H19.2891H20.1563V16V15.1562H19.2891H18.4219V16Z" fill="white"/>
<path d="M26.1562 16V16.8438H27H27.8438V16V15.1562H27H26.1562V16Z" fill="white"/>
<path d="M33.8438 16V16.8438H34.7109H35.5781V16V15.1562H34.7109H33.8438V16Z" fill="white"/>
<path d="M18.4219 20.2891V21.1562H19.2891H20.1563V20.2891V19.4219H19.2891H18.4219V20.2891Z" fill="white"/>
<path d="M26.1562 20.2891V21.1562H27H27.8438V20.2891V19.4219H27H26.1562V20.2891Z" fill="white"/>
<path d="M33.8438 20.2891V21.1562H34.7109H35.5781V20.2891V19.4219H34.7109H33.8438V20.2891Z" fill="white"/>
<path d="M18.4219 24.5781V25.4219H19.2891H20.1563V24.5781V23.7344H19.2891H18.4219V24.5781Z" fill="white"/>
<path d="M26.1562 24.5781V25.4219H27H27.8438V24.5781V23.7344H27H26.1562V24.5781Z" fill="white"/>
<path d="M33.8438 24.5781V25.4219H34.7109H35.5781V24.5781V23.7344H34.7109H33.8438V24.5781Z" fill="white"/>
<path d="M18.4313 28.8531L18.4453 29.7109H19.2891H20.1328L20.1469 28.8531L20.1563 28H19.2891H18.4219L18.4313 28.8531Z" fill="white"/>
<path d="M33.8531 28.8531L33.8672 29.7109H34.7109H35.5547L35.5688 28.8531L35.5781 28H34.7109H33.8438L33.8531 28.8531Z" fill="white"/>
<path d="M23.5781 28.4219V28.8438H27H30.4219V28.4219V28H27H23.5781V28.4219Z" fill="white"/>
<path d="M23.5781 30.1562V30.5781H27H30.4219V30.1562V29.7344H27H23.5781V30.1562Z" fill="white"/>
<path d="M23.5781 31.8437V32.2656H27H30.4219V31.8437V31.4219H27H23.5781V31.8437Z" fill="white"/>
<path d="M15 33.5781V34H27H39V33.5781V33.1562H27H15V33.5781Z" fill="white"/>
<path fill-rule="evenodd" clip-rule="evenodd" d="M19.4485 38.378L27.0548 50.353C27.2973 50.7341 27.8636 50.7293 28.0963 50.3434L35.3625 38.378H19.4485Z" fill="#C06E23"/>
</svg>
