<svg width="55" height="55" viewBox="0 0 55 55" fill="none" xmlns="http://www.w3.org/2000/svg">
<ellipse cx="27.75" cy="51" rx="3.9" ry="1.8" fill="#202020" fill-opacity="0.3"/>
<ellipse cx="27.75" cy="51" rx="6.5" ry="3" fill="#202020" fill-opacity="0.2"/>
<path fill-rule="evenodd" clip-rule="evenodd" d="M48.5614 21.8151C48.5614 33.3114 39.0901 42.6302 27.4057 42.6302C15.7212 42.6302 6.25 33.3114 6.25 21.8151C6.25 10.3188 15.7212 1 27.4057 1C39.0901 1 48.5614 10.3188 48.5614 21.8151Z" fill="#1DB553"/>
<path fill-rule="evenodd" clip-rule="evenodd" d="M19.4485 38.378L27.0548 50.353C27.2973 50.7341 27.8636 50.7293 28.0963 50.3434L35.3625 38.378H19.4485Z" fill="#1DB553"/>
<g clip-path="url(#clip0_15_1334)">
<path d="M33.7266 10.2367C30.7406 11.4617 28.8484 12.2602 28.7227 12.3422C28.6461 12.3914 28.5313 12.5117 28.4766 12.6102C28.3727 12.7797 28.3672 12.8945 28.3781 15.8367L28.3945 18.8883L29.707 19.4352C30.5711 19.7906 31.025 19.9547 31.0414 19.9109C31.0852 19.7852 31.3367 19.5938 31.5063 19.5609C31.6047 19.5445 32.0422 19.5391 32.4852 19.55L33.2891 19.5664L33.4641 19.7469L33.6445 19.9219L33.6609 20.9172C33.6719 21.5953 33.6609 21.9563 33.6117 22.0656C33.5242 22.2844 33.3055 22.4375 33.0922 22.4375H32.9062V28.2617V34.0859H36.9531H41V23.493V12.9L40.8852 12.6703C40.825 12.5391 40.6937 12.3859 40.6008 12.3258C40.2727 12.1289 34.957 9.95235 34.7383 9.93047C34.5633 9.91406 34.3555 9.97422 33.7266 10.2367ZM33.3492 14.2125C33.6227 14.3492 33.6719 14.557 33.6719 15.5742C33.6719 16.9961 33.6445 17.0234 32.332 17.0234C31.0086 17.0234 30.9922 17.007 30.9922 15.5742C30.9922 14.1414 31.0031 14.1305 32.3211 14.125C32.9992 14.125 33.218 14.1414 33.3492 14.2125ZM38.0359 14.2016C38.3148 14.3438 38.3477 14.4859 38.3477 15.5742C38.3477 17.0125 38.3367 17.0234 37.0078 17.0234C35.6953 17.0234 35.6953 17.0234 35.6953 15.5688C35.6953 14.5844 35.7008 14.5133 35.8102 14.3766C35.8758 14.2945 35.9797 14.2016 36.0453 14.1797C36.2477 14.0977 37.8664 14.1141 38.0359 14.2016ZM37.9922 19.6375C38.3203 19.8016 38.375 19.9875 38.375 21.0047C38.375 22.432 38.3695 22.4375 37.0188 22.4375H36.0672L35.8813 22.2516L35.6953 22.0656V21.0484C35.6953 19.5609 35.7063 19.5445 37.0078 19.5391C37.6586 19.5391 37.8336 19.5555 37.9922 19.6375Z" fill="white"/>
<path d="M21.668 14.8305C20.1586 15.4539 18.8516 16.0117 18.7586 16.0664C18.425 16.2633 18.3594 16.4766 18.3594 17.3844C18.3594 17.8328 18.332 18.2922 18.2992 18.407C18.1789 18.8555 18.075 18.9156 15.6797 19.9C14.2797 20.4742 13.4047 20.8625 13.3063 20.9555C12.9836 21.2508 13 20.8953 13 27.7695V34.0859H15.707H18.4141V27.9172C18.4141 21.1141 18.3977 21.4586 18.7586 20.9281C19.0648 20.4633 18.8188 20.5836 23.8828 18.4891C25.2008 17.9422 25.2281 17.9312 25.6602 17.9312C26.0648 17.9312 26.1523 17.9531 26.7703 18.2156L27.4375 18.4945L27.4266 16.6078L27.4102 14.7211L26.1578 14.2016C25.1789 13.7969 24.8563 13.6875 24.6539 13.6875C24.4516 13.693 23.85 13.9227 21.668 14.8305Z" fill="white"/>
<path d="M22.5977 20.0094C21.0391 20.6547 19.6992 21.2398 19.6281 21.3055C19.3273 21.5844 19.3438 21.2344 19.3438 27.9062V34.0859H25.6602H31.9766V27.9336C31.9766 21.907 31.9766 21.7703 31.8672 21.5625C31.807 21.4477 31.6922 21.3055 31.6102 21.2453C31.5227 21.1906 30.1992 20.6219 28.6625 19.982C26.6391 19.1508 25.8078 18.8281 25.6547 18.8281C25.5016 18.8281 24.6047 19.1781 22.5977 20.0094ZM24.3859 23.1484C24.6266 23.3344 24.6594 23.493 24.6375 24.5594L24.6211 25.5547L24.4406 25.7297L24.2656 25.9102L23.3961 25.9266C21.9852 25.9594 21.9523 25.9211 21.9797 24.3898L21.9961 23.3562L22.1766 23.1977L22.3516 23.0391H23.3031C24.1617 23.0391 24.2656 23.05 24.3859 23.1484ZM29.0727 23.1266C29.3078 23.2906 29.3516 23.5148 29.3516 24.4719C29.3516 25.8555 29.275 25.9375 27.9953 25.9375C26.6883 25.9375 26.6719 25.9156 26.6719 24.4281V23.4109L26.8578 23.225L27.0438 23.0391H27.9953C28.7828 23.0391 28.9633 23.0555 29.0727 23.1266ZM24.3203 28.5352C24.6102 28.6883 24.6484 28.8359 24.6484 29.9023C24.6484 31.3352 24.632 31.3516 23.3086 31.3516C21.9852 31.3516 21.9688 31.3352 21.9688 29.9023C21.9688 28.4695 21.9797 28.4586 23.2977 28.4531C23.9648 28.4531 24.2 28.4695 24.3203 28.5352ZM29.0289 28.5461C29.3078 28.7102 29.3516 28.8906 29.3516 29.9023C29.3516 31.3406 29.3242 31.368 27.9188 31.3406L26.9891 31.3242L26.8305 31.1437L26.6719 30.9688V29.957C26.6719 29.4047 26.6938 28.8906 26.7266 28.8141C26.7539 28.7375 26.8578 28.6227 26.9563 28.5625C27.1149 28.4641 27.2352 28.4531 28.0008 28.4531C28.7227 28.4531 28.8977 28.4695 29.0289 28.5461Z" fill="white"/>
</g>
<defs>
<clipPath id="clip0_15_1334">
<rect width="28" height="28" fill="white" transform="translate(13 8)"/>
</clipPath>
</defs>
</svg>
