<svg width="55" height="55" viewBox="0 0 55 55" fill="none" xmlns="http://www.w3.org/2000/svg">
<ellipse cx="27.75" cy="51" rx="3.9" ry="1.8" fill="#202020" fill-opacity="0.3"/>
<ellipse cx="27.75" cy="51" rx="6.5" ry="3" fill="#202020" fill-opacity="0.2"/>
<path fill-rule="evenodd" clip-rule="evenodd" d="M48.5614 21.8151C48.5614 33.3114 39.0901 42.6302 27.4057 42.6302C15.7212 42.6302 6.25 33.3114 6.25 21.8151C6.25 10.3188 15.7212 1 27.4057 1C39.0901 1 48.5614 10.3188 48.5614 21.8151Z" fill="#9167D6"/>
<path d="M30.9375 10.2969C30.9375 11.6969 30.9977 11.6094 29.9805 11.6094H29.2422V13.8789C29.2422 15.4211 29.2203 16.1867 29.182 16.2742C29.0836 16.4984 28.9141 16.5312 27.9844 16.5312H27.1094V20.1953V23.8594L27.3445 24.0234C27.4703 24.1109 28.4602 24.7836 29.543 25.5164C30.6805 26.2875 31.5391 26.9055 31.5828 26.982C31.632 27.0805 31.6484 27.4195 31.6375 28.2781C31.6211 29.432 31.6211 29.4484 31.4898 29.5523C31.4187 29.607 31.3039 29.6562 31.2328 29.6562C31.1617 29.6562 30.8336 29.4703 30.5 29.2461L29.8984 28.8359V31.8164V34.7969H33.2891H36.6797V25.6641V16.5312H35.7719H34.8641L34.7055 16.3727L34.5469 16.2141V13.9117V11.6094H33.8086C32.7969 11.6094 32.8516 11.6859 32.8516 10.2859V9.20312H31.8945H30.9375V10.2969ZM31.2766 13.4523C31.3367 13.507 31.375 13.6164 31.375 13.7477C31.375 14.0539 31.2438 14.125 30.6586 14.125C30.2047 14.125 30.1719 14.1195 30.068 13.9828C29.9203 13.7969 29.9203 13.6328 30.0625 13.4797C30.1609 13.3703 30.232 13.3594 30.675 13.3594C31.0633 13.3594 31.2 13.3813 31.2766 13.4523ZM33.7484 13.4469C33.8961 13.5945 33.918 13.7914 33.7977 13.95C33.6937 14.0867 33.6555 14.0977 33.1961 14.1141C32.6219 14.1305 32.4633 14.0539 32.4578 13.7531C32.4469 13.4305 32.5781 13.3594 33.1578 13.3594C33.5461 13.3594 33.6828 13.3813 33.7484 13.4469ZM31.2328 15.4977C31.3312 15.5742 31.375 15.6617 31.375 15.782C31.375 16.1102 31.2109 16.2031 30.6367 16.2031C30.2703 16.2031 30.2047 16.1867 30.0898 16.0664C30.0133 15.9953 29.9531 15.8695 29.9531 15.793C29.9531 15.7164 30.0133 15.5906 30.0898 15.5195C30.2047 15.3992 30.2703 15.3828 30.6531 15.3828C31.0086 15.3828 31.1125 15.4047 31.2328 15.4977ZM33.7867 15.5414C33.9289 15.7164 33.918 15.9078 33.7539 16.0664C33.6336 16.1922 33.5789 16.2031 33.1633 16.2031C32.7805 16.2031 32.6875 16.1867 32.5891 16.0938C32.3977 15.9133 32.4086 15.6891 32.6164 15.5031C32.7477 15.3828 32.8023 15.3719 33.2234 15.3938C33.6281 15.4102 33.6937 15.4266 33.7867 15.5414ZM29.625 18.1445C29.7672 18.2758 29.7672 18.5766 29.625 18.7188C29.532 18.8117 29.4445 18.8281 29.0398 18.8281C28.6297 18.8281 28.5477 18.8117 28.4383 18.7078C28.225 18.5109 28.2797 18.2047 28.5531 18.0844C28.7937 17.975 29.4773 18.0133 29.625 18.1445ZM32.5016 18.1883C32.6711 18.3852 32.6656 18.5273 32.4961 18.6914C32.3758 18.8172 32.3211 18.8281 31.9055 18.8281C31.5336 18.8281 31.4187 18.8063 31.3148 18.7297C31.0852 18.5383 31.2 18.1117 31.5062 18.0406C31.5664 18.0297 31.7906 18.0242 31.9984 18.0297C32.332 18.0406 32.3867 18.057 32.5016 18.1883ZM35.3781 18.1719C35.5094 18.3305 35.5039 18.582 35.3672 18.7188C35.2742 18.8117 35.1867 18.8281 34.782 18.8281C34.3719 18.8281 34.2898 18.8117 34.1805 18.7078C34.0547 18.593 34.0219 18.4289 34.0875 18.2539C34.1531 18.0844 34.4375 18.0023 34.8695 18.0242C35.2141 18.0461 35.2961 18.068 35.3781 18.1719ZM29.6469 21.0813C29.7672 21.2508 29.7562 21.4859 29.625 21.6172C29.532 21.7102 29.4445 21.7266 29.0398 21.7266C28.6297 21.7266 28.5477 21.7102 28.4383 21.6062C28.2797 21.4586 28.2742 21.218 28.4219 21.0703C28.5148 20.9773 28.6023 20.9609 29.0453 20.9609C29.5211 20.9609 29.5703 20.9719 29.6469 21.0813ZM32.518 21.1031C32.5836 21.1852 32.6328 21.2891 32.6328 21.3438C32.6328 21.3984 32.5836 21.5023 32.518 21.5844C32.4141 21.7211 32.3812 21.7266 31.9219 21.7266C31.3586 21.7266 31.1945 21.6391 31.1945 21.3547C31.1945 21.032 31.3258 20.9609 31.9 20.9609C32.3812 20.9609 32.4141 20.9664 32.518 21.1031ZM35.3672 21.0703C35.4273 21.1305 35.4766 21.2508 35.4766 21.3438C35.4766 21.6445 35.3234 21.7266 34.7656 21.7266C34.3336 21.7266 34.2625 21.7102 34.1641 21.6062C34.0219 21.4531 34.0219 21.2125 34.1641 21.0703C34.257 20.9773 34.3445 20.9609 34.7656 20.9609C35.1867 20.9609 35.2742 20.9773 35.3672 21.0703ZM29.625 23.9688C29.6852 24.0289 29.7344 24.1492 29.7344 24.2422C29.7344 24.543 29.5812 24.625 29.0234 24.625C28.4656 24.625 28.3125 24.543 28.3125 24.2422C28.3125 23.9414 28.4656 23.8594 29.0234 23.8594C29.4445 23.8594 29.532 23.8758 29.625 23.9688ZM32.518 24.0016C32.5836 24.0836 32.6328 24.1875 32.6328 24.2422C32.6328 24.2969 32.5836 24.4008 32.518 24.4828C32.4141 24.6195 32.3812 24.625 31.9 24.625C31.3312 24.625 31.1945 24.5539 31.1945 24.2422C31.1945 23.9305 31.3312 23.8594 31.9 23.8594C32.3812 23.8594 32.4141 23.8648 32.518 24.0016ZM35.3672 23.9688C35.4273 24.0289 35.4766 24.1492 35.4766 24.2422C35.4766 24.543 35.3234 24.625 34.7656 24.625C34.2078 24.625 34.0547 24.543 34.0547 24.2422C34.0547 23.9414 34.2078 23.8594 34.7656 23.8594C35.1867 23.8594 35.2742 23.8758 35.3672 23.9688ZM32.9062 26.8672C33.0375 26.9984 33.0484 27.2336 32.9281 27.4031C32.857 27.507 32.7969 27.5234 32.4906 27.5234C32.0859 27.5234 31.9219 27.4141 31.9219 27.1406C31.9219 26.8727 32.0859 26.7578 32.4688 26.7578C32.7258 26.7578 32.8187 26.7797 32.9062 26.8672ZM35.3672 26.8672C35.4273 26.9273 35.4766 27.0477 35.4766 27.1406C35.4766 27.4414 35.3234 27.5234 34.7656 27.5234C34.3445 27.5234 34.257 27.507 34.1641 27.4141C34.0219 27.2719 34.0219 27.0312 34.1641 26.8781C34.2625 26.7742 34.3336 26.7578 34.7656 26.7578C35.1867 26.7578 35.2742 26.7742 35.3672 26.8672ZM32.4961 29.793C32.6656 29.957 32.6711 30.0992 32.5016 30.2961C32.3758 30.4437 32.3484 30.4492 31.9 30.4492C31.4898 30.4492 31.4187 30.4328 31.3148 30.3289C31.1508 30.1648 31.1508 29.8914 31.3148 29.7547C31.4187 29.6781 31.5336 29.6562 31.9055 29.6562C32.3211 29.6562 32.3758 29.6672 32.4961 29.793ZM35.3672 29.7656C35.5039 29.9023 35.5094 30.1539 35.3836 30.307C35.2742 30.4437 34.8039 30.5148 34.4648 30.4547C34.082 30.3781 33.9289 30.0391 34.175 29.782C34.2789 29.6672 34.3391 29.6562 34.7766 29.6562C35.1867 29.6562 35.2742 29.6727 35.3672 29.7656ZM32.4961 32.6914C32.6492 32.8391 32.6602 32.9211 32.5727 33.1234C32.4797 33.3203 32.2555 33.3914 31.8125 33.3641C31.3641 33.3422 31.1945 33.2219 31.1945 32.932C31.1945 32.6422 31.3586 32.5547 31.9055 32.5547C32.3211 32.5547 32.3758 32.5656 32.4961 32.6914ZM35.3562 32.6641C35.5148 32.8117 35.5148 33.1016 35.3617 33.2437C35.2688 33.3313 35.1594 33.3477 34.7547 33.3477C34.3063 33.3477 34.257 33.3367 34.1586 33.2164C34.0219 33.0469 34.0273 32.8391 34.175 32.6805C34.2789 32.5656 34.3445 32.5547 34.7656 32.5547C35.1648 32.5547 35.2578 32.5711 35.3562 32.6641Z" fill="white"/>
<path d="M19.3711 24.7836L15.5977 27.343L15.5813 27.9062C15.5703 28.3656 15.5813 28.4586 15.6414 28.4367C15.6852 28.4203 17.375 27.2828 19.393 25.9102C22.6578 23.6898 23.0844 23.4109 23.243 23.4328C23.3633 23.4492 24.5664 24.2367 27.0875 25.9539C29.1109 27.3266 30.7789 28.4531 30.7953 28.4531C30.8172 28.4531 30.8227 28.2016 30.8172 27.8953L30.8008 27.3375L28.7773 25.9648C27.6672 25.2102 25.9773 24.0672 25.0312 23.4273C24.0852 22.7875 23.2703 22.2516 23.2266 22.2406C23.1828 22.2297 21.4492 23.3781 19.3711 24.7836Z" fill="white"/>
<path d="M20.2734 26.282L17.3477 28.2727L17.3313 31.532L17.3203 34.7969H19.2617H21.2031V33.1672C21.2031 31.3133 21.225 31.1766 21.5914 30.8102C21.9523 30.4492 22.1219 30.4109 23.2867 30.4328L24.3039 30.4492L24.5719 30.6133C24.7359 30.7172 24.9 30.8813 25.0039 31.0453L25.168 31.3133L25.1953 33.0414L25.2227 34.7695L27.1531 34.7859L29.0781 34.7969V31.532L29.0727 28.2617L26.1688 26.293C24.5719 25.2102 23.2484 24.3188 23.232 24.3078C23.2102 24.3023 21.8813 25.1883 20.2734 26.282ZM23.8719 26.4406C25.0859 27.0148 25.0422 28.7703 23.7898 29.3117C23.4727 29.4484 22.8766 29.4375 22.5648 29.2844C22.2094 29.1094 21.8813 28.7594 21.75 28.4148C21.2578 27.1023 22.6086 25.85 23.8719 26.4406Z" fill="white"/>
<path d="M22.8602 27.1734C22.3297 27.4359 22.3297 28.2727 22.8602 28.5242C23.3797 28.7703 23.943 28.4422 23.9484 27.8844C23.9594 27.2938 23.3797 26.9219 22.8602 27.1734Z" fill="white"/>
<path d="M22.3133 31.2695C22.2203 31.3078 22.1164 31.3898 22.0836 31.4555C22.0453 31.5266 22.0234 32.1281 22.0234 33.1836V34.7969L23.2156 34.7859L24.4023 34.7695L24.4188 33.2547C24.4352 31.5266 24.4133 31.4062 24.0797 31.2695C23.8227 31.1602 22.5648 31.1602 22.3133 31.2695Z" fill="white"/>
<path d="M13.9844 34.1953C13.8313 34.3484 13.8477 34.5453 14.0172 34.682C14.1539 34.7914 14.2305 34.7969 15.5211 34.7969H16.8828V34.4414V34.0859H15.4883C14.1649 34.0859 14.0883 34.0914 13.9844 34.1953Z" fill="white"/>
<path d="M37.1172 34.4414V34.7969H38.4789C39.7695 34.7969 39.8461 34.7914 39.9828 34.682C40.1524 34.5453 40.1688 34.3484 40.0156 34.1953C39.9117 34.0914 39.8352 34.0859 38.5117 34.0859H37.1172V34.4414Z" fill="white"/>
<path fill-rule="evenodd" clip-rule="evenodd" d="M19.4485 38.378L27.0548 50.353C27.2973 50.7341 27.8636 50.7293 28.0963 50.3434L35.3625 38.378H19.4485Z" fill="#9167D6"/>
</svg>
