<svg width="55" height="55" viewBox="0 0 55 55" fill="none" xmlns="http://www.w3.org/2000/svg">
<ellipse cx="27.75" cy="51" rx="3.9" ry="1.8" fill="#202020" fill-opacity="0.3"/>
<ellipse cx="27.75" cy="51" rx="6.5" ry="3" fill="#202020" fill-opacity="0.2"/>
<path fill-rule="evenodd" clip-rule="evenodd" d="M48.5614 21.8151C48.5614 33.3114 39.0901 42.6302 27.4057 42.6302C15.7212 42.6302 6.25 33.3114 6.25 21.8151C6.25 10.3188 15.7212 1 27.4057 1C39.0901 1 48.5614 10.3188 48.5614 21.8151Z" fill="#00A3FF"/>
<path d="M17.8344 9.575C17.468 9.70078 17.0633 10.0125 16.8445 10.3406C16.7133 10.5266 16.3906 11.4125 15.6523 13.6055C15.1 15.257 14.6078 16.8047 14.5586 17.0344C14.4437 17.6141 14.4437 19.375 14.5586 19.8672C14.6078 20.0641 14.7555 20.4523 14.8977 20.7367C15.3461 21.65 16.1937 22.3719 17.1836 22.6891C18.4086 23.0828 19.8195 22.7711 20.7766 21.8906L21.1484 21.5516L21.5148 21.8906C22.1766 22.4922 23.1773 22.875 24.0742 22.875C24.9766 22.875 25.9773 22.4867 26.6336 21.8906L27.0055 21.5516L27.3172 21.8469C28.7773 23.2305 31.1617 23.1977 32.5781 21.7703L32.8242 21.5242L33.207 21.8742C33.8633 22.4867 34.8641 22.875 35.7664 22.875C35.9578 22.875 36.3078 22.8258 36.5484 22.7656C37.7023 22.4758 38.632 21.7211 39.1406 20.6602C39.4797 19.9492 39.5398 19.5609 39.507 18.2375C39.4742 16.8648 39.5453 17.1273 38.2656 13.3594C37.243 10.3352 37.1773 10.193 36.6578 9.83203C36.1055 9.44922 36.7781 9.47656 26.9781 9.47656C18.6273 9.48203 18.0969 9.4875 17.8344 9.575Z" fill="white"/>
<path d="M20.8203 24.0016C20.3391 24.2477 19.5734 24.4938 19.0539 24.5648C18.0312 24.707 17.1234 24.6086 16.2812 24.2641C16.0242 24.1547 15.7727 24.0563 15.718 24.0398C15.625 24.0125 15.6195 24.1984 15.6359 28.4586L15.6523 32.9102L15.7781 33.2219C15.9477 33.6375 16.3742 34.1023 16.7953 34.3211L17.1289 34.4961L19.5734 34.5125L22.018 34.5289L22.0344 31.4172L22.0508 28.3055L22.2422 27.9281C22.3789 27.6547 22.5102 27.4961 22.707 27.3484C23.2156 26.9656 23.068 26.9766 27.0055 26.9766C30.4508 26.9766 30.5602 26.982 30.85 27.0914C31.2328 27.2336 31.6102 27.5945 31.8016 28.0047L31.9492 28.3164L31.9656 31.4172L31.982 34.5234H34.3227C36.9094 34.5234 36.9859 34.5125 37.4836 34.1789C37.8391 33.9328 38.1344 33.5281 38.2656 33.107C38.3695 32.7734 38.375 32.5984 38.375 28.3656C38.375 25.9484 38.3641 23.9688 38.3477 23.9688C38.3313 23.9688 38.1781 24.0398 38.0031 24.1273C36.6687 24.8 34.7602 24.7563 33.2672 24.0234L32.8352 23.8102L32.4195 24.018C30.8773 24.7945 29.0562 24.8109 27.4758 24.0617L26.9672 23.8211L26.5844 24.0125C24.9875 24.8219 23.1609 24.8164 21.5477 24.007L21.1703 23.8211L20.8203 24.0016Z" fill="white"/>
<path d="M23.8609 28.8469C23.7844 28.9562 23.7734 29.3227 23.7734 31.7453V34.5234H27H30.2266V31.7453C30.2266 29.3227 30.2156 28.9562 30.1391 28.8469L30.057 28.7266H27H23.943L23.8609 28.8469Z" fill="white"/>
<path fill-rule="evenodd" clip-rule="evenodd" d="M19.4485 38.378L27.0548 50.353C27.2973 50.7341 27.8636 50.7293 28.0963 50.3434L35.3625 38.378H19.4485Z" fill="#00A3FF"/>
</svg>
