<svg width="55" height="55" viewBox="0 0 55 55" fill="none" xmlns="http://www.w3.org/2000/svg">
<ellipse cx="27.75" cy="51" rx="3.9" ry="1.8" fill="#202020" fill-opacity="0.3"/>
<ellipse cx="27.75" cy="51" rx="6.5" ry="3" fill="#202020" fill-opacity="0.2"/>
<path fill-rule="evenodd" clip-rule="evenodd" d="M48.5614 21.8151C48.5614 33.3114 39.0901 42.6302 27.4057 42.6302C15.7212 42.6302 6.25 33.3114 6.25 21.8151C6.25 10.3188 15.7212 1 27.4057 1C39.0901 1 48.5614 10.3188 48.5614 21.8151Z" fill="#BD304C"/>
<path fill-rule="evenodd" clip-rule="evenodd" d="M19.4485 38.378L27.0548 50.353C27.2973 50.7341 27.8636 50.7293 28.0963 50.3434L35.3625 38.378H19.4485Z" fill="#BD304C"/>
<g clip-path="url(#clip0_15_1339)">
<path d="M27.8203 7.47656V8.95312H26.7812H25.7422V10.7852V12.6172H24.8125H23.8828V22.4883V32.3594H23.0625H22.2422V24.3203V16.2812H18.6602H15.0781V24.3203V32.3594H14.0391H13V33.1797V34H27H41V33.1797V32.3594H39.9609H38.9219V27.9844V23.6094H34.2188H29.5156V27.9844V32.3594H28.6953H27.875V27.1641V21.9688H30.6367H33.3984V17.293V12.6172H32.4688H31.5391V10.7852V8.95312H30.5H29.4609V7.47656V6H28.6406H27.8203V7.47656ZM29.4609 11.7969V12.6172H28.6406H27.8203V11.7969V10.9766H28.6406H29.4609V11.7969ZM27.6016 15.4609V16.2812H26.7812H25.9609V15.4609V14.6406H26.7812H27.6016V15.4609ZM31.2656 15.4609V16.2812H30.4453H29.625V15.4609V14.6406H30.4453H31.2656V15.4609ZM19.4531 19.125V19.9453H18.6328H17.8125V19.125V18.3047H18.6328H19.4531V19.125ZM27.6016 19.125V19.9453H26.7812H25.9609V19.125V18.3047H26.7812H27.6016V19.125ZM31.2656 19.125V19.9453H30.4453H29.625V19.125V18.3047H30.4453H31.2656V19.125ZM19.4531 23.0625V23.8828H18.6328H17.8125V23.0625V22.2422H18.6328H19.4531V23.0625ZM33.1797 29.0781V32.3594H32.3594H31.5391V29.0781V25.7969H32.3594H33.1797V29.0781ZM36.8438 29.0781V32.3594H36.0234H35.2031V29.0781V25.7969H36.0234H36.8438V29.0781ZM19.4422 26.9563L19.4586 27.7656H18.6328H17.8125V26.9453V26.1195L18.6219 26.1359L19.4258 26.1523L19.4422 26.9563ZM19.4531 30.8828V31.7031H18.6328H17.8125V30.8828V30.0625H18.6328H19.4531V30.8828Z" fill="white"/>
</g>
<defs>
<clipPath id="clip0_15_1339">
<rect width="28" height="28" fill="white" transform="translate(13 6)"/>
</clipPath>
</defs>
</svg>
