<svg width="55" height="55" viewBox="0 0 55 55" fill="none" xmlns="http://www.w3.org/2000/svg">
<ellipse cx="28.5" cy="51" rx="3.9" ry="1.8" fill="#202020" fill-opacity="0.3"/>
<ellipse cx="28.5" cy="51" rx="6.5" ry="3" fill="#202020" fill-opacity="0.2"/>
<path fill-rule="evenodd" clip-rule="evenodd" d="M49.3114 21.8151C49.3114 33.3114 39.8401 42.6302 28.1557 42.6302C16.4712 42.6302 7 33.3114 7 21.8151C7 10.3188 16.4712 1 28.1557 1C39.8401 1 49.3114 10.3188 49.3114 21.8151Z" fill="#1EABC9"/>
<path d="M26.9391 9.53126C26.6437 9.67891 26.5344 9.78829 26.3812 10.0891C26.2281 10.3953 26.2062 10.8492 26.332 11.1609C26.4359 11.4125 31.8609 16.8703 32.1672 17.0234C32.8344 17.3734 33.6875 17.0399 33.9281 16.3289C34.032 16.0281 34.0375 15.8969 33.9555 15.5578C33.8953 15.3172 33.7094 15.1203 31.068 12.4625C29.1594 10.5484 28.175 9.59688 28.0273 9.52579C27.732 9.38907 27.2234 9.38907 26.9391 9.53126Z" fill="white"/>
<path d="M23.6359 14.743L20.9453 17.4336L23.4609 19.9492L25.9766 22.4648L28.6727 19.7687L31.3633 17.0781L28.8477 14.5625L26.332 12.0469L23.6359 14.743Z" fill="white"/>
<path d="M18.9383 17.5156C18.5227 17.7562 18.3531 18.0297 18.3312 18.5273C18.3148 18.8445 18.3312 18.9648 18.4187 19.1344C18.4844 19.2602 19.693 20.507 21.3664 22.1695C24.3633 25.15 24.3195 25.1172 24.8117 25.1172C25.0961 25.1172 25.4734 24.9531 25.7031 24.7234C26.0914 24.3352 26.1789 23.7555 25.9219 23.2687C25.7687 22.9625 20.3109 17.5375 20.0594 17.4336C19.7148 17.2914 19.2664 17.3242 18.9383 17.5156Z" fill="white"/>
<path d="M29.05 20.157C28.5633 20.6438 28.1641 21.0594 28.1641 21.0813C28.1641 21.1742 36.5094 30.5313 36.7937 30.75C37.2203 31.0891 37.6141 31.2094 38.1719 31.1766C39.8727 31.0781 40.6766 29.1477 39.5828 27.7914C39.4734 27.6602 30.018 19.2656 29.9742 19.2656C29.9578 19.2656 29.5422 19.6648 29.05 20.157Z" fill="white"/>
<path d="M19.0586 28.0102C18.6047 28.125 18.1453 28.4859 17.9266 28.907C17.8281 29.0984 17.8008 29.2516 17.7844 29.7766L17.7625 30.4219H22.9414H28.1203L28.0984 29.8039C28.082 29.2734 28.0547 29.1531 27.9344 28.9125C27.7648 28.5844 27.4258 28.2672 27.0758 28.1031C26.8297 27.9883 26.7805 27.9883 23.0234 27.9773C20.9344 27.9773 19.1516 27.9883 19.0586 28.0102Z" fill="white"/>
<path d="M17.0844 31.0453C16.7727 31.1437 16.3844 31.4336 16.2148 31.6906C15.9469 32.0898 15.9141 32.2812 15.9141 33.293V34.2391L16.0727 34.4086L16.2312 34.5781H22.9086H29.5859L29.7609 34.4195L29.9414 34.2609V33.2547C29.9414 32.3469 29.9305 32.232 29.8266 32.0023C29.6625 31.6523 29.3453 31.3188 29.0172 31.1437L28.7383 30.9961L23.0234 30.9852C18.4461 30.9797 17.2648 30.9906 17.0844 31.0453Z" fill="white"/>
<path fill-rule="evenodd" clip-rule="evenodd" d="M20.1985 38.378L27.8048 50.353C28.0473 50.7341 28.6136 50.7293 28.8463 50.3434L36.1125 38.378H20.1985Z" fill="#1EABC9"/>
</svg>
