<svg width="55" height="55" viewBox="0 0 55 55" fill="none" xmlns="http://www.w3.org/2000/svg">
<ellipse cx="27.5" cy="51" rx="3.9" ry="1.8" fill="#202020" fill-opacity="0.3"/>
<ellipse cx="27.5" cy="51" rx="6.5" ry="3" fill="#202020" fill-opacity="0.2"/>
<path fill-rule="evenodd" clip-rule="evenodd" d="M48.3114 21.8151C48.3114 33.3114 38.8401 42.6302 27.1557 42.6302C15.4712 42.6302 6 33.3114 6 21.8151C6 10.3188 15.4712 1 27.1557 1C38.8401 1 48.3114 10.3188 48.3114 21.8151Z" fill="#F5C443"/>
<path fill-rule="evenodd" clip-rule="evenodd" d="M19.1985 38.378L26.8048 50.353C27.0473 50.7341 27.6136 50.7293 27.8463 50.3434L35.1125 38.378H19.1985Z" fill="#F5C443"/>
<g clip-path="url(#clip0_15_1336)">
<path d="M32.4961 9.04452C31.7961 9.15937 31.0687 9.52577 30.5328 10.0234L30.1937 10.3461L29.8164 10.2094C28.7555 9.82108 27.525 10.1 26.7375 10.8984L26.4312 11.2101L26.1469 11.0789C25.7476 10.8984 25.2062 10.8547 24.7797 10.9805C24.4461 11.0734 24.025 11.3086 23.8555 11.5C23.7625 11.6039 23.757 11.6039 23.5328 11.4836C23.2101 11.3141 22.5375 11.3141 22.182 11.4891C20.9187 12.107 20.9187 13.8461 22.182 14.4641C22.5375 14.6391 23.2101 14.6391 23.5328 14.4695C23.757 14.3492 23.7625 14.3492 23.8555 14.4531C24.025 14.6445 24.4461 14.8797 24.7797 14.9726C25.2008 15.0984 25.7476 15.0547 26.1414 14.8742L26.4258 14.743L26.7375 15.0547C27.5687 15.8914 28.8867 16.1594 29.9422 15.7055L30.1828 15.6016L30.5328 15.9242C31.189 16.5422 32.0258 16.8976 32.9609 16.9523C33.6992 16.9961 34.2515 16.8812 34.9734 16.5258C35.925 16.0609 36.625 15.257 36.9914 14.207C37.1281 13.8078 37.1445 13.7039 37.1445 12.9766C37.1445 12.2492 37.1281 12.1453 36.9914 11.7461C36.7672 11.1117 36.4445 10.6031 35.9633 10.1219C35.0719 9.2414 33.7484 8.83124 32.4961 9.04452Z" fill="white"/>
<path d="M15.9148 14.5734C15.8438 14.6063 15.7781 14.6719 15.7617 14.7211C15.7398 14.7977 13.9844 34.5453 13.9844 34.7313C13.9844 34.7695 14.0336 34.8461 14.0938 34.9062C14.1977 35.0102 14.2742 35.0156 17.0742 35.0156H19.9453V31.7836V28.5516L19.6828 28.3164C18.9445 27.6492 18.8898 26.4898 19.568 25.7461C19.8906 25.3961 20.3063 25.1773 20.7328 25.1336L21.0391 25.1008L21.0117 24.8492C20.9953 24.7125 20.782 22.3719 20.5469 19.6539C20.1969 15.6672 20.093 14.6883 20.0273 14.6227C19.9508 14.5461 19.6719 14.5352 17.9875 14.5242C16.6641 14.5188 15.9969 14.5297 15.9148 14.5734Z" fill="white"/>
<path d="M22.6633 19.0359C22.5867 19.118 22.543 19.55 22.4063 21.7047C22.3188 23.1156 22.2313 24.4609 22.2094 24.6906L22.1766 25.1172H24.1781H26.1797V24.9914C26.1797 24.9258 26.0922 23.5859 25.9938 22.0109C25.8297 19.5391 25.7914 19.1344 25.7094 19.0414C25.6219 18.943 25.5234 18.9375 24.1836 18.9375C22.8656 18.9375 22.7453 18.943 22.6633 19.0359Z" fill="white"/>
<path d="M28.3508 19.0359C28.2742 19.118 28.2305 19.55 28.0938 21.7047C28.0063 23.1156 27.9188 24.4609 27.8969 24.6906L27.8641 25.1172H29.8656H31.8672V24.9914C31.8672 24.9258 31.7797 23.5859 31.6813 22.0109C31.5172 19.5391 31.4789 19.1344 31.3969 19.0414C31.3094 18.943 31.2109 18.9375 29.8711 18.9375C28.5531 18.9375 28.4328 18.943 28.3508 19.0359Z" fill="white"/>
<path d="M34.0383 19.0359C33.9617 19.118 33.918 19.55 33.7813 21.7047C33.6938 23.1156 33.6063 24.4609 33.5844 24.6906L33.5516 25.1172H35.5531H37.5547V24.9914C37.5547 24.9258 37.4672 23.5859 37.3688 22.0109C37.2047 19.5391 37.1664 19.1344 37.0844 19.0414C36.9969 18.943 36.8984 18.9375 35.5586 18.9375C34.2406 18.9375 34.1203 18.943 34.0383 19.0359Z" fill="white"/>
<path d="M20.525 25.8555C20.1039 26.0031 19.7266 26.5336 19.7266 26.9766C19.7266 27.4359 20.1477 27.9992 20.5797 28.1195C20.7273 28.1633 23.6094 28.1797 29.9312 28.1797H39.0641L39.343 28.043C39.7477 27.8406 40.0156 27.4141 40.0156 26.9766C40.0156 26.5391 39.7477 26.1125 39.343 25.9102L39.0641 25.7734H29.9039C22.2367 25.7789 20.7055 25.7898 20.525 25.8555Z" fill="white"/>
<path d="M29.8602 28.8195L20.6016 28.8359V31.8164C20.6016 34.7258 20.6016 34.7969 20.7109 34.9062C20.8203 35.0156 20.8914 35.0156 29.8711 35.0156C38.8508 35.0156 38.9219 35.0156 39.0312 34.9062C39.1406 34.7969 39.1406 34.7258 39.1406 31.7891C39.1406 30.132 39.1352 28.7867 39.1297 28.7922C39.1187 28.8031 34.9461 28.8141 29.8602 28.8195ZM24.9547 30.3234C25.0641 30.4273 25.075 30.6625 24.9766 30.7773C24.9219 30.843 24.7578 30.8594 24.1234 30.8594C23.3906 30.8594 23.3359 30.8539 23.2812 30.75C23.1828 30.5695 23.2375 30.3508 23.3906 30.2687C23.6039 30.1594 24.8344 30.2031 24.9547 30.3234ZM27.7273 30.2633C27.957 30.3836 28.0008 30.6133 27.8258 30.7719C27.7383 30.8484 27.618 30.8594 26.9672 30.8484L26.2125 30.832L26.125 30.6844C26.032 30.5094 26.0812 30.3836 26.2945 30.2742C26.4641 30.1867 27.5633 30.1812 27.7273 30.2633ZM30.6969 30.3234C30.8062 30.4273 30.8172 30.6625 30.7188 30.7773C30.6641 30.843 30.5 30.8594 29.8656 30.8594C29.1328 30.8594 29.0781 30.8539 29.0234 30.75C28.925 30.5695 28.9797 30.3508 29.1328 30.2687C29.3461 30.1594 30.5766 30.2031 30.6969 30.3234ZM33.4695 30.2633C33.6937 30.3836 33.7375 30.5859 33.5789 30.7609C33.5023 30.8484 33.3984 30.8594 32.7367 30.8594C32.0203 30.8594 31.9766 30.8539 31.9 30.7391C31.7742 30.5641 31.7906 30.4437 31.9547 30.318C32.0859 30.2195 32.1789 30.2031 32.7258 30.2031C33.0922 30.2031 33.3984 30.2305 33.4695 30.2633ZM36.4391 30.3234C36.5484 30.4273 36.5594 30.6625 36.4609 30.7773C36.4062 30.843 36.2422 30.8594 35.6078 30.8594C34.875 30.8594 34.8203 30.8539 34.7656 30.75C34.6672 30.5695 34.7219 30.3508 34.875 30.2687C35.0883 30.1594 36.3187 30.2031 36.4391 30.3234Z" fill="white"/>
</g>
<defs>
<clipPath id="clip0_15_1336">
<rect width="28" height="28" fill="white" transform="translate(13 8)"/>
</clipPath>
</defs>
</svg>
