<svg width="55" height="55" viewBox="0 0 55 55" fill="none" xmlns="http://www.w3.org/2000/svg">
<ellipse cx="27.75" cy="51" rx="3.9" ry="1.8" fill="#202020" fill-opacity="0.3"/>
<ellipse cx="27.75" cy="51" rx="6.5" ry="3" fill="#202020" fill-opacity="0.2"/>
<path fill-rule="evenodd" clip-rule="evenodd" d="M48.5614 21.8151C48.5614 33.3114 39.0901 42.6302 27.4057 42.6302C15.7212 42.6302 6.25 33.3114 6.25 21.8151C6.25 10.3188 15.7212 1 27.4057 1C39.0901 1 48.5614 10.3188 48.5614 21.8151Z" fill="#1AC9BE"/>
<path d="M19.3359 23V37H22.7539H26.1719V31.9961V26.9922H27.9656C31.7391 26.9922 33.85 26.7953 35.1789 26.3305C36.3383 25.9203 37.1914 25.3844 38.0664 24.5039C39.182 23.3883 39.9203 22.0703 40.3359 20.457C40.6969 19.0625 40.7625 17.3289 40.5055 15.9563C40.1719 14.1789 39.3953 12.6148 38.2633 11.4445C37.4375 10.5914 36.6281 10.0555 35.5781 9.66172C34.0414 9.0875 32.6523 9 24.7992 9H19.3359V23ZM29.9672 15.125C31.657 15.2125 32.2148 15.3766 32.8492 15.9781C34.1672 17.2414 33.8336 19.6094 32.2203 20.4023C31.482 20.7688 30.5852 20.8672 27.993 20.8672H26.1719V17.9688V15.0703H27.5281C28.2719 15.0703 29.3656 15.0977 29.9672 15.125Z" fill="white"/>
<path fill-rule="evenodd" clip-rule="evenodd" d="M19.4485 38.378L27.0548 50.353C27.2973 50.7341 27.8636 50.7293 28.0963 50.3434L35.3625 38.378H19.4485Z" fill="#1AC9BE"/>
</svg>
