<svg width="55" height="55" viewBox="0 0 55 55" fill="none" xmlns="http://www.w3.org/2000/svg">
<ellipse cx="27.75" cy="51" rx="3.9" ry="1.8" fill="#202020" fill-opacity="0.3"/>
<ellipse cx="27.75" cy="51" rx="6.5" ry="3" fill="#202020" fill-opacity="0.2"/>
<path fill-rule="evenodd" clip-rule="evenodd" d="M48.5614 21.8151C48.5614 33.3114 39.0901 42.6302 27.4057 42.6302C15.7212 42.6302 6.25 33.3114 6.25 21.8151C6.25 10.3188 15.7212 1 27.4057 1C39.0901 1 48.5614 10.3188 48.5614 21.8151Z" fill="#1751C0"/>
<path d="M19.8086 12.4406C19.3219 12.5281 18.693 12.8781 18.2883 13.2773C17.8672 13.693 17.5336 14.3164 17.4352 14.8578C17.3969 15.0547 17.375 16.0445 17.375 17.3297C17.375 19.1398 17.3859 19.4789 17.457 19.5391C17.5172 19.5883 17.6156 19.5828 17.9273 19.5117C18.1461 19.4625 18.5727 19.4078 18.8734 19.3914C19.1797 19.375 19.4586 19.3367 19.4914 19.3094C19.5297 19.2766 19.5734 19.1672 19.5953 19.0523C19.6609 18.6969 19.9453 18.2266 20.2461 18.0078C20.7437 17.6305 20.8312 17.6195 22.9586 17.6359C24.8344 17.6523 24.8398 17.6523 25.1133 17.7891C25.6055 18.0297 25.9937 18.5273 26.0922 19.0414C26.1523 19.3641 26.1742 19.375 27 19.375C27.5359 19.375 27.7711 19.3531 27.8094 19.3039C27.8367 19.2711 27.8914 19.1289 27.9297 18.9922C28.0773 18.4398 28.3781 18.068 28.8758 17.8L29.1602 17.6523H31.1562H33.1523L33.4258 17.7891C33.9234 18.0352 34.3062 18.5328 34.4047 19.0523C34.4266 19.1672 34.4703 19.2766 34.5086 19.3094C34.5414 19.3367 34.8203 19.375 35.1266 19.3914C35.4273 19.4078 35.8539 19.4625 36.0727 19.5117C36.3844 19.5828 36.4828 19.5883 36.543 19.5391C36.6141 19.4789 36.625 19.1398 36.625 17.3297C36.625 16.0445 36.6031 15.0547 36.5648 14.8578C36.357 13.693 35.307 12.643 34.1422 12.4352C33.7266 12.3586 20.2078 12.3641 19.8086 12.4406Z" fill="white"/>
<path d="M18.3047 20.332C16.4836 20.7039 15.0891 22.1477 14.8101 23.9688C14.7609 24.2586 14.75 25.3633 14.7609 27.7258C14.7773 31.007 14.7773 31.0727 14.8922 31.2203C15.1055 31.5102 15.2805 31.5977 15.625 31.5977C15.8656 31.5977 15.9859 31.5703 16.0953 31.4828C16.4016 31.2586 16.4672 31.1109 16.5 30.5805C16.5437 29.782 15.1383 29.875 27 29.875C38.8617 29.875 37.4562 29.782 37.5 30.5805C37.5328 31.1109 37.5984 31.2586 37.9047 31.4828C38.014 31.5703 38.1344 31.5977 38.375 31.5977C38.7195 31.5977 38.8945 31.5102 39.1078 31.2203C39.2226 31.0727 39.2226 31.007 39.239 27.7531C39.25 25.4945 39.2336 24.2969 39.1953 24.0016C38.9492 22.2789 37.7023 20.8789 35.9687 20.3813C35.6297 20.2828 35.2305 20.2773 27.1367 20.2664C20.2898 20.2609 18.5891 20.2719 18.3047 20.332Z" fill="white"/>
<path fill-rule="evenodd" clip-rule="evenodd" d="M19.4485 38.378L27.0548 50.353C27.2973 50.7341 27.8636 50.7293 28.0963 50.3434L35.3625 38.378H19.4485Z" fill="#1751C0"/>
</svg>
